<svg width="480" height="270" viewBox="0 0 480 270" fill="none" xmlns="http://www.w3.org/2000/svg">
<rect width="480" height="270" fill="#181818"/>
<path d="M261 149V127H281L287 133H267V143H287L281 149H261Z" fill="white"/>
<path d="M242 127H236V153L242 159V127Z" fill="white"/>
<path d="M253 149H259V112L253 118V149Z" fill="white"/>
<path d="M253 149L242 136V127L253 140V149Z" fill="white"/>
<path d="M306 149L284 127H293L315 149H306Z" fill="white"/>
<path d="M283 159L315 127H306L274 159H283Z" fill="white"/>
<path d="M312 133L318 127H355L349 133H335V149H329V133H312Z" fill="white"/>
<path d="M154.929 118.889H138.857L154.929 135L126 164H142.071L171 135L154.929 118.889Z" fill="#FF646D"/>
<path d="M187.071 151.111H203.143L187.071 135L216 106H199.929L171 135L187.071 151.111Z" fill="#FF646D"/>
</svg>
